<svg width="100" height="100" viewBox="0 0 100 100" fill="none" xmlns="http://www.w3.org/2000/svg">
<circle cx="50.7576" cy="50.758" r="49.2424" fill="#5796A4"/>
<path d="M27.7363 37.1465V71.6918" stroke="#F1F0EA" stroke-width="3" stroke-miterlimit="10" stroke-linecap="round"/>
<path d="M72.2632 37.1465V71.6918" stroke="#F1F0EA" stroke-width="3" stroke-miterlimit="10" stroke-linecap="round"/>
<path d="M17.9487 42.2203L51.2216 22.3564L82.0511 42.2203" stroke="#F1F0EA" stroke-width="3" stroke-miterlimit="10" stroke-linecap="round"/>
<path d="M47.6566 65.8923C47.0195 65.257 46.7036 64.4474 46.7036 63.4618C46.7036 62.4761 47.0213 61.6738 47.6566 61.0512C48.2919 60.4285 49.1015 60.1163 50.0872 60.1163C51.0728 60.1163 51.8824 60.4285 52.5177 61.0512C53.1531 61.6738 53.4707 62.4761 53.4707 63.4618C53.4707 64.4202 53.1531 65.2262 52.5177 65.8724C51.8824 66.5204 51.0728 66.8453 50.0872 66.8453C49.1015 66.8453 48.2919 66.5295 47.6566 65.8923ZM47.9289 57.2574C47.8381 57.1666 47.7927 57.0577 47.7927 56.927L47.132 40.1236C47.132 39.8114 47.2881 39.6553 47.5985 39.6553H53.1204C53.4326 39.6553 53.5869 39.8114 53.5869 40.1236L52.9262 56.927C52.9262 57.0559 52.8808 57.1666 52.79 57.2574C52.6993 57.3499 52.5885 57.3935 52.4596 57.3935H48.2593C48.1304 57.3953 48.0196 57.3499 47.9289 57.2574Z" fill="#F1F0EA"/>
</svg>
