<svg width="100" height="100" viewBox="0 0 100 100" fill="none" xmlns="http://www.w3.org/2000/svg">
<circle cx="50.7576" cy="49.2424" r="49.2424" fill="#C84C09"/>
<path d="M67.1882 21.0127C66.3242 20.4972 65.2133 20.784 64.6996 21.6462C64.1877 22.5084 64.4727 23.623 65.3331 24.133C74.42 29.5315 80.0635 39.4444 80.0635 49.9998C80.0635 66.5781 66.5765 80.0652 49.9982 80.0652C33.4198 80.0652 19.9328 66.5763 19.9328 49.9998C19.9328 34.6976 31.4322 22.0546 46.2389 20.194C46.2389 22.5193 46.2389 24.8446 46.2389 27.1699C49.6769 24.3436 53.1149 21.5191 56.5529 18.6929C56.5529 18.6929 55.2332 17.6074 54.6705 17.1463C54.5162 16.9539 54.3238 16.7978 54.1042 16.6798C51.2561 14.34 46.2389 10.2158 46.2389 10.2158C46.2389 12.3178 46.2389 14.4217 46.2389 16.5237C29.4245 18.4042 16.3042 32.6918 16.3042 49.9998C16.3042 68.5803 31.4213 83.6956 50 83.6956C68.5787 83.6956 83.6957 68.5803 83.6957 49.9998C83.6957 38.1683 77.3715 27.061 67.1882 21.0127Z" fill="white"/>
<path d="M64.3422 45.4907C64.5001 45.6486 64.58 45.841 64.58 46.0661V54.0676C64.58 54.2945 64.5019 54.4851 64.3422 54.643C64.1843 54.8027 63.9918 54.8808 63.7668 54.8808H55.1536C54.9267 54.8808 54.8141 54.9933 54.8141 55.2221V63.7663C54.8141 63.9932 54.7361 64.1838 54.5782 64.3417C54.4184 64.5014 54.2278 64.5795 54.0009 64.5795H46.0666C45.8397 64.5795 45.6491 64.5014 45.4912 64.3417C45.3333 64.1838 45.2534 63.9932 45.2534 63.7663V55.2221C45.2534 54.9952 45.1409 54.8808 44.914 54.8808H36.2336C36.0067 54.8808 35.8161 54.8027 35.6582 54.643C35.4985 54.4851 35.4204 54.2945 35.4204 54.0676V46.0661C35.4204 45.841 35.4985 45.6486 35.6582 45.4907C35.8161 45.3328 36.0067 45.2529 36.2336 45.2529H44.914C45.1391 45.2529 45.2534 45.1404 45.2534 44.9135V36.2331C45.2534 36.0062 45.3315 35.8156 45.4912 35.6577C45.6491 35.4998 45.8397 35.4199 46.0666 35.4199H54.0009C54.2278 35.4199 54.4184 35.4998 54.5782 35.6577C54.7361 35.8156 54.8141 36.0062 54.8141 36.2331V44.9135C54.8141 45.1404 54.9267 45.2529 55.1536 45.2529H63.7668C63.9918 45.2529 64.1843 45.3328 64.3422 45.4907Z" fill="white"/>
</svg>
