<svg width="100" height="100" viewBox="0 0 100 100" fill="none" xmlns="http://www.w3.org/2000/svg">
<circle cx="50" cy="50" r="50" fill="#5796A4"/>
<path d="M74.8086 76.2076H23.6511C22.1695 76.2076 20.9702 75.0066 20.9702 73.5267V43.6165C20.9702 42.1366 22.1695 40.9355 23.6511 40.9355H74.8086C76.2903 40.9355 77.4895 42.1366 77.4895 43.6165V73.5267C77.4895 75.0066 76.2903 76.2076 74.8086 76.2076ZM26.3321 70.8458H72.1277V46.2974H26.3321V70.8458Z" fill="white"/>
<path d="M49.2306 43.6934C48.2441 43.6934 47.4434 42.8945 47.4434 41.9061V22.6535C47.4434 21.6651 48.2441 20.8662 49.2306 20.8662C50.2172 20.8662 51.0179 21.6651 51.0179 22.6535V41.9043C51.0179 42.8927 50.2172 43.6934 49.2306 43.6934Z" fill="white"/>
<path d="M69.2307 26.9182L53.3433 21.5576V32.2789L69.2307 26.9182Z" fill="white"/>
<path d="M53.5523 58.084H44.9072V73.9569H53.5523V58.084Z" fill="white"/>
<path d="M38.9556 58.084H30.3105V65.7371H38.9556V58.084Z" fill="white"/>
<path d="M68.151 58.084H59.5059V65.7371H68.151V58.084Z" fill="white"/>
</svg>
